Patient4_TMGait_0pt4_03_right_09_EMG.mot
version=1
nRows=36
nColumns=33
inDegrees=no
endheader
time	1LAddLong	2LGlutMax	3LGlutMed	4LIliopsoas	5LSemiMemb	6LBicFemLong	7LRecFem	8LVastMed	9LVastLat	10LGasMed	11LTibAnt	12lTibPost	13LPeroneusLong	14LSol	15LExtDigLong	16LFlexDigLong	17RAddLong	18RGlutMax	19RGlutMed	20RIliopsoas	21RSemiMemb	22RBicFemLong	23RRecFem	24RVastMed	25RVastLat	26RGasMed	27RTibAnt	28RTibPost	29RPeroneusLong	30RSol	31RExtDigLong	32RFlexDigLong
10.77	-0.003815	-0.068817	0.13718	0.006256	0.007019	-0.080109	-0.038147	-0.001068	0.021362	-0.049896	0.095673	0.006561	-0.10284	-0.024109	-0.14954	-0.026703	-0.003052	-0.10376	0.071716	-0.031891	0.022583	-0.09552	0.025024	-0.1294	-0.002899	0.003815	-0.02533	-0.00351	0.027313	-0.06546	-0.000153	-0.010223
10.771	-0.001221	-0.077362	0.13123	0.013428	0.038757	-0.0737	-0.006866	-0.006409	0.044861	-0.064087	0.058289	0.005646	0.12772	-0.018005	-0.2565	-0.024719	0	-0.066376	-0.30518	-0.009766	0.014343	-0.057678	0.003967	-0.081024	-0.012207	0.004425	-0.036011	-0.001373	0.17334	-0.063782	0.000458	-0.006409
10.772	0.000458	-0.078735	0.054016	0.001373	0.039368	-0.083008	0.080872	-0.00473	0.094757	-0.045471	-0.11673	0.014954	0.51437	-0.026245	-0.58182	-0.030365	-0.006714	-0.044098	-0.62042	0.057983	0.009918	-0.034485	0.002747	-0.095062	-0.003967	0.00824	-0.056152	-0.002289	0.019684	-0.041504	0.002594	0.00061
10.773	0.002747	-0.11368	0.049438	-0.00412	0.037689	-0.062561	0.090332	-0.000763	0.097046	-0.027771	-0.31784	0.009613	0.93964	-0.088348	-0.68726	-0.012054	0.008087	-0.097351	-1.1195	0.040741	0.010071	-0.002594	0.023041	-0.12329	-0.00061	-0.003967	0.041656	-0.00412	-0.21393	-0.062103	0.00351	0.001984
10.774	0.000458	-0.097504	0.03891	0.006409	0.034485	-0.0383	0.048676	-0.00412	0.093994	-0.011139	-0.34653	0.016632	0.18921	-0.057983	-0.2739	-0.013123	-0.002289	-0.024109	-0.84869	-0.12634	0.019379	0.008392	-0.009003	-0.082855	0.024414	0.006104	0.14832	-0.012207	-0.21332	-0.07019	0.001678	0.003662
10.775	0.000305	-0.061951	0.002747	-0.001984	0.019226	0.001984	0.051727	-0.000458	0.073242	-0.010223	-0.27557	0.005188	-0.070801	-0.11963	-0.10559	-0.011139	-0.007324	0.021057	-0.26291	-0.22858	0.014038	0.023956	0.024261	-0.09201	-0.003815	0.000153	0.009003	-0.007172	0.37659	-0.07431	0.000458	-0.003815
10.776	-0.006561	-0.036469	-0.006256	0.007477	-0.014038	0.016022	0.057373	0.002136	0.066223	-0.038757	-0.20645	0.005188	-0.069275	-0.23117	-0.15289	-0.006714	-0.003204	-0.028839	0.70297	-0.21133	-0.000153	0.050812	0.003815	-0.12283	0.013123	0.00473	-0.10376	-0.014496	0.31647	-0.05188	0.001831	0.00351
10.777	0.006104	-0.074921	0.005035	0.016327	-0.026093	-0.016632	0.039215	0.001221	0.07019	-0.001526	-0.045471	0.013123	-0.34317	-0.24826	-0.023956	-0.001526	-0.002594	-0.091705	0.79605	-0.023193	0.007782	0.09079	0.006409	-0.08255	0.002136	-0.001984	0.045624	-0.006561	0.15198	0.009918	0.001221	0.000153
10.778	0.001678	-0.11154	0.077972	0.008545	-0.001831	0.004578	0.060577	0.001984	0.027466	-0.004272	0.008392	-0.006256	0.097656	-0.10971	-0.002136	0.001831	-0.009918	-0.23422	0.99167	0.18982	0.002899	0.084229	0.007935	-0.096436	-0.003052	-0.006714	0.12131	-0.006866	0.066223	-0.015564	-0.001221	0.000916
10.779	0.000458	-0.11276	0.10193	-0.000153	0.050659	0.006104	0.074768	0.007019	0.011139	-0.011139	-0.001984	0.00351	-0.018768	-0.083008	0.13992	0.005951	-0.00473	-0.23148	0.52719	0.22186	0.010071	0.076447	-0.002899	-0.10422	0.005951	0.000763	0.12085	-0.001984	-0.037689	-0.034943	-0.006104	-0.001221
10.78	0.00473	-0.16068	-0.026093	0.005493	0.039978	0.029144	0.077057	-0.000305	-0.015717	-0.012054	0.026398	0.006409	-0.11765	-0.17349	0.25925	-0.005493	-0.002747	-0.25894	0.20966	0.16342	0.038452	0.089722	0.012054	-0.10574	0.013123	0.00351	0.067291	-0.013275	-0.072479	-0.032196	-0.002136	-0.00412
10.781	0.005188	-0.092468	-0.04364	-0.011597	0.020752	0.065765	0.045776	-0.003204	-0.012817	-0.005035	0.029755	0.011444	0.047607	-0.17425	0.30167	0.005798	-0.00061	-0.2214	-0.048676	0.15213	-0.000916	0.052185	-0.013733	-0.11673	0.005341	0.00412	0.013123	-0.014038	-0.062866	-0.037384	0.001068	-0.012512
10.782	0.003204	-0.087891	-0.042419	-0.02533	0.018005	0.058289	0.032349	0.009613	0.029297	0.017242	0.026703	0.0177	0.041504	-0.1651	0.19547	0.006561	0.023499	-0.18356	-0.093689	0.09903	-0.025787	0.072479	0.008545	-0.13397	0.002441	-0.00351	0.017395	-0.016632	-0.012207	-0.034637	0.001678	-0.010071
10.783	-0.004425	-0.085297	-0.05661	0.005951	0.019684	0.052795	0.034637	0.017853	0.028076	0.057068	-0.003967	0.014648	0.072937	-0.10132	0.1239	0.00824	0.026703	-0.16846	0.10437	0.072479	-0.053406	0.14954	0.025635	-0.11963	0.001831	0.007782	-0.01709	-0.012817	-0.081177	-0.042877	0.001068	-0.002289
10.784	-0.00061	-0.096893	-0.099182	0.050201	-0.002747	0.035248	0.001984	0.023193	0.015564	0.092621	-0.047302	0.013733	0.13062	-0.003204	0.082703	0.002899	0.008392	-0.16663	-0.177	0.068512	-0.052032	0.20706	-0.008087	-0.14069	-0.00824	0.003967	-0.071411	-0.011444	-0.085907	-0.054779	0.003357	-0.024414
10.785	0.006256	-0.11993	-0.085144	0.039368	0.003815	0.061798	0.041656	0.011292	0.000305	0.070343	-0.014801	0.014801	0.066376	0.041504	0.054626	0.007782	-0.013733	-0.19134	-0.11124	0.072632	0.043945	0.22003	-0.036926	-0.074463	0.001984	-0.001068	-0.012054	-0.007172	-0.060425	-0.09613	0.005798	-0.005493
10.786	0.001984	-0.068207	-0.009308	0.021667	0.031128	0.049438	0.017242	0.006409	0.007782	0.041046	0.041351	0.007782	0.031586	0.035706	0.094147	-0.001984	-0.033569	-0.18784	-0.078583	0.055542	0.020447	0.14481	-0.013885	-0.072174	0.006866	-0.005341	0.085907	-0.010681	-0.087585	-0.074768	0.001831	-0.006104
10.787	-0.000153	-0.087738	0.06424	0.009613	0.039673	0.062103	0.023651	-0.020752	0.05661	0.050049	0.081024	0.011902	-0.028687	-0.02594	0.088806	0.001221	-0.030975	-0.097351	0.068665	0.001221	-0.01236	0.15717	-0.032501	-0.041046	0.006561	-0.012054	-0.01236	-0.008545	0.009308	-0.076294	0.00351	-0.005646
10.788	0.030212	-0.10468	0.002594	0.010834	0.014496	0.060425	0.029297	-0.017242	0.022583	0.067139	0.045013	0.010834	-0.083008	-0.11383	0.062408	0.009308	-0.020752	-0.1329	0.061493	-0.062256	-0.064697	0.15518	-0.046997	-0.094299	0.022583	-0.016632	-0.063934	-0.010529	0.075378	-0.072327	0	-0.007324
10.789	-0.006256	-0.068359	0.015869	0.006866	0.016174	0.016479	0.047302	-0.013275	-0.041962	0.050201	0.02243	0.010376	-0.067902	-0.15823	0.040131	0.006409	-0.011292	-0.17319	-0.42602	-0.023041	-0.044403	0.15472	-0.044556	-0.075531	0.001221	-0.023041	0.10803	-0.004425	0.049286	-0.071869	0	-0.00412
10.79	0.020752	-0.073395	0.05722	-0.007324	0.032959	-0.020142	0.11948	-0.019531	-0.049896	0.034027	0.015717	0.014191	-0.034637	-0.15274	0.02182	-0.007782	0.00061	-0.14099	-0.53085	-0.011139	-0.044861	0.14389	-0.036926	-0.07843	0.014954	-0.022736	0.26871	-0.004883	0.005798	-0.072174	0.00824	0.00061
10.791	0.043182	-0.066681	0.085297	0.011292	0.019073	-0.002136	0.071259	0.011597	-0.093842	-0.014954	0.01297	0.015564	0.008698	-0.069275	0.1506	-0.009766	-0.011292	-0.10849	0.11841	-0.093842	-0.044861	0.15686	-0.003052	-0.057068	0.010071	-0.018463	0.34744	-0.014191	-0.051727	-0.10986	0.002441	0.001678
10.792	0.027313	-0.076141	0.077972	-0.000916	0.02121	0.012817	0.0383	0.01358	-0.002289	-0.050659	0.006866	0.006256	-0.023651	-0.03891	0.080414	-0.000153	0.000763	-0.093689	0.23254	-0.15778	-0.037079	0.17456	-0.02121	-0.11047	0.012207	-0.016022	0.19196	-0.00824	-0.037384	-0.10864	0.00061	0.000305
10.793	-0.006866	-0.084229	0.059509	-0.007477	0.017548	0.007782	0.050964	0.007782	0.095367	-0.042267	0.002136	0.016785	-0.043488	0.012054	-0.00885	-0.001373	0.01297	-0.11475	-0.02243	-0.06424	-0.082245	0.18387	0.024719	-0.12863	0.014191	-0.015259	-0.098724	-0.012512	0.043335	-0.077362	0.001068	0.004578
10.794	-0.003662	-0.097351	0.019379	-0.012817	0.016632	0.021515	0.063019	0.003052	-0.003662	-0.041962	0.019989	0.018158	0.037231	-0.014801	-0.016479	0.003967	0.019684	-0.1506	-0.094147	0.052643	-0.11078	0.17975	-0.022125	-0.066986	0.018921	-0.018311	-0.11749	-0.011749	-0.014191	-0.035858	0.004578	-0.004578
10.795	0.009155	-0.11932	0.041809	-0.00351	0.020142	0.007935	0.06073	-0.002136	0.066681	-0.029144	0.020752	0.013885	0.1738	-0.072784	-0.009766	0.001831	0.017548	-0.17197	-0.51361	0.013885	-0.056915	0.18402	0.003204	-0.078735	0.010681	-0.024872	-0.041809	-0.012207	-0.009003	-0.00885	-0.003357	0.002136
10.796	0.006104	-0.060425	0.053864	0.009003	0.011749	0.010223	0.01358	0.000458	0.14435	-0.026245	0.001221	0.014038	0.27344	-0.11444	-0.009003	0.005341	-0.011139	-0.11673	-0.052338	-0.064087	-0.014343	0.19226	-0.013885	-0.058289	0.014496	-0.00885	-0.007782	-0.011902	-0.00946	0.021667	0.00061	0.001373
10.797	0.001373	-0.063782	0.011902	0.016479	0.003662	-0.012512	-0.041351	-0.012207	0.24185	0.013733	-0.00351	0.015411	0.089569	-0.20004	-0.016327	0.013123	-0.046387	-0.10086	0.15137	-0.03418	0.13504	0.16068	-0.016937	-0.00473	0.013733	-0.022583	0.02182	-0.006561	0.016785	0.038605	0.000458	-0.002899
10.798	0.006866	-0.057526	-0.005951	0.002899	0.015869	-0.011902	-0.062866	-0.005188	0.17838	0.068665	0.01297	0.01709	0.032043	-0.009613	-0.004272	0.010834	-0.040741	-0.11215	0.25909	-0.019226	0.14465	0.15259	-0.000305	-0.050201	0.013428	-0.018921	0.0383	-0.006256	0.023804	-0.028687	-0.001678	-0.002899
10.799	-0.004578	-0.010071	0.020599	-0.004883	0.007477	0.014038	-0.033112	-0.000916	-0.010529	0.079498	0.002289	0.009003	0.22049	0.14435	0.036316	0.003052	-0.033875	-0.090027	0.17563	0.10895	-0.03067	0.15228	-0.001373	-0.072021	0.019226	-0.019531	0.011292	-0.007019	0.068207	-0.034943	0.003052	-0.010223
10.8	-0.005035	-0.082703	-0.072174	0.006409	0.006256	-0.01358	-0.045471	-0.003662	-0.006256	0.072632	0.018158	0.007629	-0.11444	0.08728	0.033875	0.001526	-0.01358	-0.13123	-0.33066	0.13351	-0.054321	0.11993	-0.039368	-0.071716	0.019684	-0.025787	0.017242	-0.001526	0.040436	-0.044098	0.005188	-0.005188
10.801	-0.005798	-0.11734	-0.052032	-0.010834	0.011749	0.006256	0.039063	-0.004425	0.10025	0.044708	0.036011	0.010834	-0.18112	0.11292	-0.011292	-0.006866	0.003815	-0.10086	-0.31967	0.068817	-0.029297	0.14236	-0.010986	-0.070648	-0.002594	-0.017853	0.00824	-0.005798	0.02182	-0.019073	-0.000916	-0.007629
10.802	-0.006256	-0.084229	0.064087	-0.008545	0.005646	0.005188	0.12054	-0.015717	0.11612	-0.0177	0.029602	0.014801	0.001373	0.10437	-0.007629	0.001526	0.016479	-0.15991	0.12955	0.034485	-0.055389	0.16235	-0.007019	-0.069122	-0.014191	-0.027313	-0.01358	-0.005035	0.003204	-0.041351	0.003204	-0.008698
10.803	0.006409	-0.076904	0.053711	0.005646	0.020599	0.005188	0.15869	-0.021667	0.049744	-0.010834	0.008698	0.018158	0.12894	-0.035706	-0.072479	-0.00946	0.016937	-0.11887	-0.042267	0.040588	-0.084534	0.17059	-0.022125	-0.11185	-0.019073	-0.02533	-0.014191	-0.005646	-0.038605	-0.037079	0.005188	-0.011139
10.804	-0.00412	-0.072937	0.081329	0.005341	0.010529	0.002441	0.15274	-0.009308	-0.083313	-0.02594	0.006104	0.014801	-0.13992	-0.092468	-0.059967	-0.00824	-0.014343	-0.061951	0.24536	-0.021973	-0.063019	0.14801	-0.024567	-0.074463	0.005798	-0.028839	-0.020447	-0.002441	0.006561	-0.017242	-0.002747	-0.006866
10.805	-0.000458	-0.10452	0.16159	0.000153	0.018158	-0.012512	0.052643	0.014191	-0.06958	-0.016785	0.013275	0.018158	-0.25497	-0.019531	0.028992	-0.004578	-0.019836	-0.08255	0.49576	0.009003	0.031128	0.15533	-0.002136	-0.083466	-0.000916	-0.033264	-0.010376	0.000153	0.015564	-0.014191	0.001526	-0.003052
